<?xml version="1.0" standalone="no"?>
<!DOCTYPE svg PUBLIC "-//W3C//DTD SVG 20010904//EN"
 "http://www.w3.org/TR/2001/REC-SVG-20010904/DTD/svg10.dtd">
<svg version="1.0" xmlns="http://www.w3.org/2000/svg"
 width="1024.000000pt" height="1024.000000pt" viewBox="0 0 1024.000000 1024.000000"
 preserveAspectRatio="xMidYMid meet">

<g transform="translate(0.000000,1024.000000) scale(0.100000,-0.100000)"
fill="#000000" stroke="none">
<path d="M2315 8119 c-943 -5 -1056 -8 -1109 -23 -225 -63 -395 -230 -463
-451 -17 -57 -18 -119 -18 -1115 0 -1157 -3 -1102 61 -1235 96 -198 270 -329
485 -365 91 -14 2186 -14 2282 1 251 39 466 224 549 474 l23 70 1 710 c0 391
-3 870 -6 1065 -6 328 -8 360 -28 420 -72 217 -283 401 -504 440 -86 15 -173
15 -1273 9z m1288 -253 c74 -27 161 -86 201 -139 14 -18 40 -64 58 -102 l33
-70 3 -1000 c2 -658 -1 -1016 -8 -1048 -25 -118 -117 -240 -220 -292 -124 -63
-68 -60 -1261 -58 -1183 2 -1146 0 -1246 58 -98 58 -169 151 -200 265 -17 61
-18 133 -17 1045 1 911 2 984 19 1043 33 117 116 217 223 271 101 51 69 50
1247 50 l1100 1 68 -24z"/>
<path d="M3115 7312 l-40 -7 -3 -788 -2 -787 26 -10 c34 -13 240 -13 265 0 19
10 19 30 19 789 0 637 -2 781 -13 790 -16 13 -196 22 -252 13z"/>
<path d="M1927 7258 c-96 -268 -507 -1522 -500 -1529 11 -10 161 -29 239 -29
37 0 66 5 72 13 5 6 33 86 61 177 29 90 53 165 54 166 1 1 130 3 286 5 l285 4
51 -160 c70 -218 60 -205 148 -205 95 1 219 17 227 31 4 6 -22 95 -57 197 -36
103 -139 403 -229 667 -91 264 -182 530 -203 590 l-38 110 -190 3 -191 2 -15
-42z m297 -601 c49 -149 91 -278 93 -284 4 -10 -37 -13 -182 -13 -174 0 -187
1 -180 18 18 47 165 525 165 538 0 45 24 -15 104 -259z"/>
<path d="M4610 7823 c-75 -38 -104 -139 -60 -210 41 -67 -53 -63 1344 -63
l1264 0 32 26 c62 53 74 108 39 181 -41 85 74 78 -1334 81 -1175 2 -1252 1
-1285 -15z"/>
<path d="M4613 6960 c-61 -27 -85 -70 -80 -143 3 -46 9 -63 32 -87 16 -17 45
-35 65 -41 23 -7 634 -9 1850 -7 l1815 3 34 24 c82 59 78 190 -8 243 l-36 23
-1815 2 c-1773 3 -1816 2 -1857 -17z"/>
<path d="M4593 6080 c-90 -54 -83 -209 11 -254 31 -14 171 -16 1456 -16 1308
0 1425 1 1457 17 39 18 70 61 79 109 8 45 -26 118 -68 144 -33 20 -45 20
-1468 20 -1406 0 -1436 0 -1467 -20z"/>
<path d="M1336 4695 c-324 -65 -563 -278 -652 -581 -15 -51 -18 -118 -21 -468
-5 -442 1 -525 42 -646 108 -318 370 -524 713 -560 124 -14 7290 -13 7407 0
225 26 375 93 516 230 88 86 144 168 189 276 51 124 60 185 66 464 8 340 -7
631 -36 725 -45 145 -135 282 -248 378 -68 58 -226 137 -337 169 l-80 23
-3745 2 c-3133 1 -3756 -1 -3814 -12z m7536 -219 c148 -29 242 -78 341 -179
69 -71 131 -190 152 -292 21 -101 21 -706 0 -831 -46 -272 -258 -474 -540
-514 -59 -8 -1067 -10 -3755 -8 -3522 3 -3678 4 -3735 22 -173 52 -321 175
-393 326 -22 47 -45 108 -51 135 -8 32 -12 193 -14 445 -1 354 0 402 17 460
61 220 260 402 479 439 29 5 1711 9 3739 10 3136 1 3697 -1 3760 -13z"/>
<path d="M3595 4049 c-32 -18 -45 -40 -45 -79 0 -48 33 -80 82 -80 69 0 102
82 56 134 -27 30 -65 40 -93 25z"/>
<path d="M7045 4048 c-32 -17 -45 -39 -45 -78 0 -75 94 -111 139 -54 30 38 27
80 -8 115 -31 31 -53 35 -86 17z"/>
<path d="M7695 4048 c-32 -17 -45 -39 -45 -79 0 -29 6 -42 26 -58 87 -68 183
42 105 120 -31 31 -53 35 -86 17z"/>
<path d="M1500 4001 c-136 -44 -231 -171 -249 -332 -22 -194 53 -364 193 -437
45 -23 62 -26 146 -26 111 0 147 12 215 75 48 45 98 129 93 156 -2 10 -27 23
-68 35 -36 10 -68 18 -71 18 -3 0 -13 -18 -23 -40 -32 -73 -113 -113 -184 -92
-51 15 -107 73 -126 130 -19 54 -21 178 -4 233 13 46 68 113 109 134 72 38
171 -3 216 -89 14 -26 17 -28 61 -21 103 15 109 22 72 95 -51 99 -155 162
-280 167 -41 1 -86 -1 -100 -6z"/>
<path d="M3210 3871 l0 -80 -37 -3 -38 -3 -3 -67 -3 -68 41 0 40 0 0 -179 c0
-99 4 -191 10 -205 5 -14 21 -32 35 -42 30 -20 134 -29 190 -17 l40 9 0 58 c0
68 -10 80 -53 64 -23 -9 -37 -9 -55 -1 -29 14 -35 45 -37 205 l-1 107 68 3 68
3 0 65 0 65 -62 3 c-61 3 -62 3 -68 35 -3 18 -6 52 -7 77 l-3 45 -62 3 -63 3
0 -80z"/>
<path d="M7307 3944 c-4 -4 -7 -40 -7 -80 l0 -73 -37 -3 -38 -3 0 -65 0 -65
35 0 35 0 5 -193 5 -194 32 -28 c38 -34 95 -45 178 -33 l60 8 3 53 c4 69 -7
83 -55 70 -25 -7 -43 -6 -60 1 -20 9 -23 17 -23 69 0 33 -3 100 -6 150 l-7 91
69 3 69 3 0 65 0 65 -62 3 -62 3 -5 42 c-3 23 -7 58 -8 77 l-3 35 -55 3 c-31
2 -59 0 -63 -4z"/>
<path d="M2150 3795 c-63 -20 -124 -75 -157 -143 -25 -50 -28 -68 -27 -147 0
-61 5 -102 17 -128 47 -109 135 -167 254 -168 168 -2 261 94 271 276 7 136
-42 231 -148 289 -63 34 -145 42 -210 21z m160 -145 c38 -27 60 -78 60 -139 0
-93 -45 -158 -117 -168 -136 -18 -205 187 -98 294 28 28 40 33 80 33 31 0 56
-7 75 -20z"/>
<path d="M2810 3795 c-25 -8 -55 -23 -67 -35 -29 -26 -33 -25 -33 5 0 25 -1
26 -62 23 l-63 -3 0 -285 0 -285 65 0 65 0 5 198 5 199 33 29 c43 38 107 41
149 5 l28 -24 5 -204 5 -203 65 0 65 0 2 190 c1 105 -3 215 -9 245 -11 61 -44
112 -87 134 -43 23 -120 28 -171 11z"/>
<path d="M4022 3792 c-28 -11 -60 -26 -70 -35 -25 -23 -32 -21 -29 6 2 21 -2
22 -62 22 l-63 0 1 -280 c0 -154 1 -283 1 -287 0 -5 29 -8 65 -8 36 0 65 3 65
8 0 4 2 88 3 187 4 195 9 220 57 248 32 19 92 22 120 7 39 -21 45 -49 50 -250
l5 -195 65 0 65 0 3 184 c3 204 -6 278 -42 332 -45 68 -142 93 -234 61z"/>
<path d="M5173 3799 c-115 -21 -195 -119 -209 -257 -8 -75 22 -181 69 -244 69
-92 217 -129 321 -79 47 23 116 91 116 115 0 16 -71 76 -90 76 -7 0 -21 -11
-32 -25 -41 -52 -104 -68 -157 -40 -40 20 -81 72 -81 101 l0 24 184 0 c212 0
205 -4 187 94 -31 166 -157 262 -308 235z m117 -148 c34 -24 58 -67 44 -81 -6
-6 -48 -8 -117 -4 -120 8 -131 17 -81 68 47 46 103 53 154 17z"/>
<path d="M8648 3801 c-130 -42 -197 -154 -186 -312 8 -133 79 -224 193 -250
64 -14 111 -7 159 26 20 14 39 25 41 25 3 0 5 -21 5 -46 0 -37 -5 -51 -30 -76
-29 -28 -35 -30 -88 -26 -45 3 -68 11 -106 37 -54 37 -70 35 -120 -18 -22 -23
-24 -29 -13 -51 7 -15 40 -39 78 -58 60 -31 74 -34 151 -34 65 0 96 5 136 22
55 24 108 75 117 113 3 12 4 159 3 327 l-3 305 -63 3 c-46 2 -64 -1 -68 -11
-4 -12 -12 -11 -43 5 -44 22 -125 31 -163 19z m161 -147 c69 -49 67 -196 -4
-252 -33 -26 -92 -29 -134 -7 -73 37 -82 171 -16 241 28 30 39 34 81 34 30 0
59 -7 73 -16z"/>
<path d="M6103 3788 c-3 -7 -32 -95 -64 -197 -32 -102 -59 -179 -62 -171 -2 8
-19 94 -38 190 l-34 175 -67 3 c-54 2 -68 0 -68 -12 0 -8 12 -58 27 -113 14
-54 45 -177 68 -273 l41 -175 69 0 c50 0 70 4 76 15 4 8 27 87 50 175 23 88
45 166 49 174 8 15 15 -5 75 -224 19 -69 37 -130 40 -135 3 -6 35 -10 71 -10
57 0 65 2 74 23 10 22 140 533 140 549 0 4 -31 8 -69 8 l-69 0 -10 -47 c-6
-27 -23 -112 -38 -190 -16 -79 -31 -139 -35 -135 -3 4 -32 88 -64 187 -32 99
-63 183 -68 186 -16 11 -86 8 -94 -3z"/>
<path d="M6792 3772 c-15 -15 -33 -37 -39 -47 -11 -18 -12 -15 -10 20 l2 40
-61 3 c-44 2 -63 -1 -65 -10 -2 -7 -2 -137 1 -288 l5 -275 60 0 60 0 5 170 c4
134 9 177 22 201 19 35 66 59 103 52 30 -6 34 -1 57 72 18 54 18 55 -3 73 -13
10 -38 17 -66 17 -36 0 -50 -6 -71 -28z"/>
<path d="M8094 3781 c-23 -10 -45 -24 -48 -30 -12 -19 -26 -12 -26 14 0 25 -1
26 -62 23 l-63 -3 0 -285 0 -285 65 0 65 0 5 190 c4 162 8 195 23 218 34 52
117 63 164 23 l28 -24 5 -204 5 -203 65 0 65 0 3 185 c4 220 -2 278 -31 321
-39 57 -71 73 -150 77 -55 2 -82 -2 -113 -17z"/>
<path d="M3567 3783 c-4 -3 -7 -134 -7 -290 l0 -283 63 0 64 0 6 276 c3 152 3
283 0 290 -5 15 -113 21 -126 7z"/>
<path d="M4380 3585 c0 -228 9 -276 62 -331 66 -70 209 -68 291 4 9 8 17 11
18 6 1 -5 2 -18 3 -29 1 -17 9 -20 64 -23 l62 -3 -2 288 -3 288 -62 3 c-46 2
-63 0 -63 -10 -1 -7 -1 -74 -1 -148 0 -74 -3 -155 -8 -180 -12 -60 -56 -100
-112 -100 -94 0 -109 34 -109 249 0 88 -3 166 -6 175 -5 12 -21 16 -70 16
l-64 0 0 -205z"/>
<path d="M7015 3778 c-3 -7 -4 -137 -3 -288 l3 -275 65 0 65 0 0 285 0 285
-63 3 c-44 2 -64 -1 -67 -10z"/>
<path d="M7668 3783 c-2 -4 -4 -134 -4 -288 l1 -280 65 0 65 0 0 285 0 285
-62 3 c-34 2 -63 -1 -65 -5z"/>
</g>
</svg>
