<svg xmlns="http://www.w3.org/2000/svg" xmlns:xlink="http://www.w3.org/1999/xlink" fill="none" version="1.1" width="256" height="256" viewBox="0 0 256 256"><defs><mask id="master_svg0_4_669" style="mask-type:alpha" maskUnits="objectBoundingBox"><g><rect x="12.337350845336914" y="12.337350845336914" width="231.3253173828125" height="231.3253173828125" rx="33.92771530151367" fill="#FFFFFF" fill-opacity="1"/></g></mask><filter id="master_svg1_4_664" filterUnits="objectBoundingBox" color-interpolation-filters="sRGB" x="-0.0487804901960666" y="0" width="1.0975609803921331" height="1.0769230851561888"><feFlood flood-opacity="0" result="BackgroundImageFix"/><feColorMatrix in="SourceAlpha" type="matrix" values="0 0 0 0 0 0 0 0 0 0 0 0 0 0 0 0 0 0 127 0"/><feOffset dy="6.168675422668457" dx="0"/><feGaussianBlur stdDeviation="1.5421688556671143"/><feColorMatrix type="matrix" values="0 0 0 0 0 0 0 0 0 0 0 0 0 0 0 0 0 0 0.30000001192092896 0"/><feBlend mode="normal" in2="BackgroundImageFix" result="effect1_dropShadow"/><feBlend mode="normal" in="SourceGraphic" in2="effect1_dropShadow" result="shape"/></filter><filter id="master_svg2_4_665" filterUnits="objectBoundingBox" color-interpolation-filters="sRGB" x="-0.03669725108962893" y="0" width="1.073394502179258" height="1.2222222260394946"><feFlood flood-opacity="0" result="BackgroundImageFix"/><feColorMatrix in="SourceAlpha" type="matrix" values="0 0 0 0 0 0 0 0 0 0 0 0 0 0 0 0 0 0 127 0"/><feOffset dy="6.168675422668457" dx="0"/><feGaussianBlur stdDeviation="1.5421688556671143"/><feColorMatrix type="matrix" values="0 0 0 0 0 0 0 0 0 0 0 0 0 0 0 0 0 0 0.30000001192092896 0"/><feBlend mode="normal" in2="BackgroundImageFix" result="effect1_dropShadow"/><feBlend mode="normal" in="SourceGraphic" in2="effect1_dropShadow" result="shape"/></filter><filter id="master_svg3_4_663" filterUnits="objectBoundingBox" color-interpolation-filters="sRGB" x="-0.25" y="0" width="1.5" height="1.5"><feFlood flood-opacity="0" result="BackgroundImageFix"/><feColorMatrix in="SourceAlpha" type="matrix" values="0 0 0 0 0 0 0 0 0 0 0 0 0 0 0 0 0 0 127 0"/><feOffset dy="6.168675422668457" dx="0"/><feGaussianBlur stdDeviation="1.5421688556671143"/><feColorMatrix type="matrix" values="0 0 0 0 0 0 0 0 0 0 0 0 0 0 0 0 0 0 0.30000001192092896 0"/><feBlend mode="normal" in2="BackgroundImageFix" result="effect1_dropShadow"/><feBlend mode="normal" in="SourceGraphic" in2="effect1_dropShadow" result="shape"/></filter></defs><g><g><rect x="0" y="0" width="256" height="256" rx="46.26506423950195" fill="#F1F0EC" fill-opacity="1"/></g><g mask="url(#master_svg0_4_669)"><g><rect x="12.337350845336914" y="12.337350845336914" width="231.3253173828125" height="231.3253173828125" rx="33.92771530151367" fill="#0C364B" fill-opacity="1"/></g><g><path d="M-1.5421686172485352,249.06028270568848L93.30123138275147,267.56588270568847L244.43383138275146,249.06028270568848L244.43383138275146,159.61447270568848Q233.63883138275148,154.21688270568848,215.13283138275148,154.21688270568848C196.62683138275148,154.21688270568848,176.57783138275147,157.30122270568847,152.67483138275148,173.49398270568847C128.77083138275145,189.68678270568847,103.32483138275147,203.56628270568848,67.08433138275146,203.56628270568848Q30.843331382751465,203.56628270568848,7.710841382751465,187.37348270568847L-1.5421686172485352,249.06028270568848Z" fill="#0C415C" fill-opacity="1"/><path d="M7.421921382751465,186.70068270568848L-1.923445617248535,249.00308270568848L-1.9781846172485351,249.36798270568846L93.28733138275146,267.9568827056885L244.81883138275145,249.40148270568847L244.81883138275145,159.37619270568848L244.60583138275146,159.26963270568848Q233.72983138275146,153.8313407056885,215.13283138275148,153.8313407056885Q199.03383138275146,153.8313407056885,185.82683138275146,157.41103270568848Q168.99383138275147,161.97316270568848,152.45883138275147,173.17478270568847Q131.18583138275147,187.5854827056885,114.36383138275147,194.24398270568847Q91.78713138275147,203.18078270568847,67.08433138275146,203.18078270568847Q30.964831382751463,203.18078270568847,7.931941382751464,187.05768270568848L7.421921382751465,186.70068270568848ZM-1.1061526172485352,248.75248270568846L93.31503138275147,267.1758827056885L244.04783138275147,248.7190827056885L244.04783138275147,159.8536527056885Q233.36583138275145,154.60242470568846,215.13283138275148,154.60242470568846Q199.13683138275147,154.60242470568846,186.02883138275146,158.15526270568847Q169.31983138275146,162.68375270568848,152.89083138275146,173.81318270568846Q131.54783138275147,188.27138270568847,114.64783138275146,194.96088270568848Q91.93423138275146,203.9517827056885,67.08433138275146,203.9517827056885Q31.119931382751467,203.9517827056885,8.000181382751466,188.0435827056885L-1.1061526172485352,248.75248270568846Z" fill-rule="evenodd" fill="#205A7B" fill-opacity="1"/></g></g><g filter="url(#master_svg1_4_664)"><path d="M18.506025314331055,106.51446935424805Q18.506025314331055,131.88286935424804,28.007465314331057,149.80786935424806Q37.50892531433105,167.73386935424804,53.99202531433105,177.16786935424804Q70.47522531433106,186.60286935424804,91.36792531433106,186.60286935424804Q111.42072531433105,186.60286935424804,125.96202531433106,178.73986935424804Q131.52802531433105,175.48686935424806,136.27002531433106,170.72286935424805L114.30782531433105,150.54186935424804Q105.12142531433105,157.46086935424805,91.99782531433105,157.46086935424805Q74.14982531433105,157.46086935424805,63.07352531433106,144.46186935424805Q51.99732531433106,131.46286935424803,51.99732531433106,106.51446935424805Q51.99732531433106,82.08976935424805,63.021025314331055,68.72426935424804Q73.22732531433105,55.35886935424804,92.10282531433106,55.35886935424804C108.36612531433106,55.35876935424805,113.55622531433106,59.79456935424805,120.52402531433106,65.74946935424805C121.64302531433106,66.70586935424805,122.80802531433106,67.70156935424805,124.07202531433106,68.72426935424804L144.96402531433105,48.44856935424805Q133.89902531433106,37.33266935424805,124.07202531433106,32.925809354248045Q109.53092531433106,26.216869354248047,91.36792531433106,26.216869354248047Q70.79022531433105,26.216869354248047,54.254525314331055,35.65130935424805Q37.71892531433106,45.08576935424804,28.112455314331054,63.01116935424805Q18.506025314331055,80.93666935424804,18.506025314331055,106.51446935424805Z" fill="#FE8728" fill-opacity="1"/></g><g filter="url(#master_svg2_4_665)"><path d="M85.86529826660157,131.35251785888673Q80.79599826660156,131.35251785888673,77.09151826660157,129.26921785888672Q73.38703826660156,127.18581785888672,71.39231826660156,123.46451785888672Q69.39759826660156,119.74321785888672,69.39759826660156,114.80061785888671Q69.39759826660156,109.82921785888672,71.39231826660156,106.09351785888671Q73.38703826660156,102.35781785888672,77.09151826660157,100.27451785888672Q80.79599826660156,98.19111785888671,85.86529826660157,98.19111785888671Q90.96459826660157,98.19111785888671,94.66909826660157,100.27451785888672Q98.37349826660156,102.35781785888672,100.36829826660156,106.09351785888671Q102.36299826660156,109.82921785888672,102.36299826660156,114.80061785888671Q102.36299826660156,119.74321785888672,100.36829826660156,123.46451785888672Q98.37349826660156,127.18581785888672,94.66909826660157,129.26921785888672Q90.96459826660157,131.35251785888673,85.86529826660157,131.35251785888673ZM78.84626826660156,114.74311785888672Q78.84626826660156,118.93861785888672,80.61599826660157,121.66851785888672Q82.38579826660157,124.39841785888672,85.89529826660156,124.39841785888672Q89.37479826660156,124.39841785888672,91.14449826660156,121.66851785888672Q92.91429826660156,118.93861785888672,92.91429826660156,114.74311785888672Q92.91429826660156,110.54761785888672,91.14449826660156,107.84641785888672Q89.37479826660156,105.14521785888672,85.89529826660156,105.14521785888672Q82.38579826660157,105.14521785888672,80.61599826660157,107.84641785888672Q78.84626826660156,110.54761785888672,78.84626826660156,114.74311785888672ZM123.47999826660157,143.42171785888672Q116.70099826660157,143.42171785888672,112.84649826660157,140.84981785888672Q108.99199826660157,138.27791785888672,108.18219826660156,134.45601785888672L116.76089826660157,133.36411785888671Q117.33089826660157,134.8296178588867,118.96559826660156,135.92161785888672Q120.60039826660156,137.01351785888673,123.68999826660156,137.01351785888673Q126.71959826660157,137.01351785888673,128.69929826660155,135.61981785888673Q130.67899826660155,134.2261178588867,130.67899826660155,130.92151785888672L130.67899826660155,125.03061785888673L130.25909826660157,125.03061785888673Q129.35919826660157,127.04211785888671,127.03449826660156,128.65131785888673Q124.70979826660155,130.26061785888672,120.69039826660156,130.26061785888672Q116.94089826660156,130.26061785888672,113.85139826660156,128.57951785888673Q110.76179826660156,126.89841785888672,108.93209826660157,123.42141785888671Q107.10229826660157,119.94431785888672,107.10229826660157,114.62811785888672Q107.10229826660157,109.13961785888672,108.97699826660156,105.49011785888672Q110.85179826660156,101.84061785888672,113.94129826660156,100.01591785888672Q117.03089826660155,98.19111785888671,120.72039826660156,98.19111785888671Q123.50999826660157,98.19111785888671,125.42969826660156,99.09631785888672Q127.34949826660156,100.00151785888671,128.53429826660155,101.35211785888671Q129.71909826660158,102.70271785888671,130.34899826660157,104.02451785888672L130.70899826660155,104.02451785888672L130.70899826660155,98.59341785888672L139.82769826660154,98.59341785888672L139.82769826660154,131.0652178588867Q139.82769826660154,135.1457178588867,137.72799826660156,137.90441785888672Q135.62829826660158,140.66301785888672,131.95379826660155,142.04231785888672Q128.27929826660156,143.42171785888672,123.47999826660157,143.42171785888672ZM116.61099826660157,114.57071785888672Q116.61099826660157,118.70871785888671,118.42569826660156,121.13691785888672Q120.24049826660156,123.56511785888671,123.65999826660156,123.56511785888671Q127.01949826660156,123.56511785888671,128.86419826660156,121.18001785888671Q130.70899826660155,118.79491785888672,130.70899826660155,114.57071785888672Q130.70899826660155,110.34651785888673,128.87929826660155,107.80331785888671Q127.04949826660156,105.26021785888672,123.65999826660156,105.26021785888672Q120.21049826660156,105.26021785888672,118.41069826660157,107.86081785888672Q116.61099826660157,110.46141785888672,116.61099826660157,114.57071785888672ZM156.56539826660156,112.15681785888671L156.56539826660156,130.72031785888672L147.26669826660157,130.72031785888672L147.26669826660157,98.59341785888672L156.41539826660156,98.59341785888672L156.41539826660156,104.31191785888672L156.74529826660157,104.31191785888672Q157.88519826660155,101.49581785888672,160.37479826660154,99.84341785888672Q162.86449826660157,98.19111785888671,166.58399826660155,98.19111785888671Q171.83359826660157,98.19111785888671,174.99759826660156,101.42391785888672Q178.16259826660155,104.65671785888672,178.16259826660155,110.28901785888672L178.16259826660155,130.72031785888672L168.86359826660157,130.72031785888672L168.86359826660157,111.86951785888672Q168.86359826660157,108.90971785888672,167.28889826660156,107.24301785888672Q165.71409826660158,105.57631785888671,162.92449826660157,105.57631785888671Q160.10489826660157,105.57631785888671,158.33509826660156,107.31481785888673Q156.56539826660156,109.05331785888671,156.56539826660156,112.15681785888671ZM185.60159826660157,130.72031785888672L185.60159826660157,98.59341785888672L194.89959826660157,98.59341785888672L194.89959826660157,130.72031785888672L185.60159826660157,130.72031785888672ZM200.80959826660157,95.37499785888672L200.80959826660157,87.90361785888672L237.49359826660157,87.90361785888672L237.49359826660157,95.37499785888672L223.87559826660157,95.37499785888672L223.87559826660157,130.72031785888672L214.45759826660156,130.72031785888672L214.45759826660156,95.37499785888672L200.80959826660157,95.37499785888672Z" fill="#FFFFFF" fill-opacity="1"/></g><g filter="url(#master_svg3_4_663)"><rect x="177.3494110107422" y="58.6024169921875" width="24.674701690673828" height="24.674701690673828" rx="12.337350845336914" fill="#FFFFFF" fill-opacity="1"/></g></g></svg>