<svg xmlns="http://www.w3.org/2000/svg" xmlns:xlink="http://www.w3.org/1999/xlink" fill="none" version="1.1" width="512" height="512" viewBox="0 0 512 512"><defs><clipPath id="master_svg0_19_012"><rect x="0" y="0" width="512" height="512" rx="0"/></clipPath><mask id="master_svg1_19_018" style="mask-type:alpha" maskUnits="objectBoundingBox"><g><rect x="0.0000152587890625" y="0.0000152587890625" width="512" height="512" rx="92.5" fill="#FFFFFF" fill-opacity="1"/></g></mask><filter id="master_svg2_19_021" filterUnits="objectBoundingBox" color-interpolation-filters="sRGB" x="-0.04878048854062846" y="0" width="1.0975609770812569" height="1.076923080582238"><feFlood flood-opacity="0" result="BackgroundImageFix"/><feColorMatrix in="SourceAlpha" type="matrix" values="0 0 0 0 0 0 0 0 0 0 0 0 0 0 0 0 0 0 127 0"/><feOffset dy="12.337348937988281" dx="0"/><feGaussianBlur stdDeviation="3.0843372344970703"/><feColorMatrix type="matrix" values="0 0 0 0 0 0 0 0 0 0 0 0 0 0 0 0 0 0 0.30000001192092896 0"/><feBlend mode="normal" in2="BackgroundImageFix" result="effect1_dropShadow"/><feBlend mode="normal" in="SourceGraphic" in2="effect1_dropShadow" result="shape"/></filter><filter id="master_svg3_19_022" filterUnits="objectBoundingBox" color-interpolation-filters="sRGB" x="-0.03669724874740885" y="0" width="1.0733944974948177" height="1.2222222222222223"><feFlood flood-opacity="0" result="BackgroundImageFix"/><feColorMatrix in="SourceAlpha" type="matrix" values="0 0 0 0 0 0 0 0 0 0 0 0 0 0 0 0 0 0 127 0"/><feOffset dy="12.337348937988281" dx="0"/><feGaussianBlur stdDeviation="3.0843372344970703"/><feColorMatrix type="matrix" values="0 0 0 0 0 0 0 0 0 0 0 0 0 0 0 0 0 0 0.30000001192092896 0"/><feBlend mode="normal" in2="BackgroundImageFix" result="effect1_dropShadow"/><feBlend mode="normal" in="SourceGraphic" in2="effect1_dropShadow" result="shape"/></filter><filter id="master_svg4_19_023" filterUnits="objectBoundingBox" color-interpolation-filters="sRGB" x="-0.25" y="0" width="1.5" height="1.5"><feFlood flood-opacity="0" result="BackgroundImageFix"/><feColorMatrix in="SourceAlpha" type="matrix" values="0 0 0 0 0 0 0 0 0 0 0 0 0 0 0 0 0 0 127 0"/><feOffset dy="12.337348937988281" dx="0"/><feGaussianBlur stdDeviation="3.0843372344970703"/><feColorMatrix type="matrix" values="0 0 0 0 0 0 0 0 0 0 0 0 0 0 0 0 0 0 0.30000001192092896 0"/><feBlend mode="normal" in2="BackgroundImageFix" result="effect1_dropShadow"/><feBlend mode="normal" in="SourceGraphic" in2="effect1_dropShadow" result="shape"/></filter></defs><g clip-path="url(#master_svg0_19_012)"><g><g mask="url(#master_svg1_19_018)"><g><rect x="0.0000152587890625" y="0.0000152587890625" width="512" height="512" rx="92" fill="#0C364B" fill-opacity="1"/></g><g><path d="M-52.49998474121094,498.1207310791016L186.60201525878907,535.1327310791016L549.5000152587891,521.9997310791016L549.5000152587891,319.2289310791016Q467.2770152587891,308.43373107910156,430.26501525878905,308.43373107910156C393.25301525878905,308.43373107910156,348.8070152587891,316.1144710791016,301.00001525878906,348.5000310791016C253.19301525878905,380.88553107910155,210.00001525878906,409.4997310791016,119.50001525878906,409.4997310791016Q29.000015258789062,409.4997310791016,-33.99398474121094,374.74693107910156L-52.49998474121094,498.1207310791016Z" fill="#0C415C" fill-opacity="1"/><path d="M-34.59208474121094,373.53633107910156L-53.262537741210934,498.00573107910157L-53.37638574121094,498.7647310791016L186.55701525878905,535.9057310791015L550.271015258789,522.7437310791015L550.271015258789,318.55243107910155L549.6000152587891,318.46433107910156Q467.329015258789,307.6626470791016,430.26501525878905,307.66263907910155Q398.2760152587891,307.6626470791016,369.47601525878906,315.5787810791016Q333.7110152587891,325.4092310791016,300.56801525878905,347.8616310791016Q277.45301525878904,363.5199310791016,264.80501525878907,371.03093107910155Q244.75301525878905,382.93873107910156,225.97401525878905,390.42833107910155Q180.08901525878906,408.7287310791016,119.50001525878906,408.7287310791016Q29.198715258789065,408.7287310791016,-33.621484741210935,374.07183107910157L-34.59208474121094,373.53633107910156ZM-51.62358574121094,497.4757310791016L186.64801525878906,534.3597310791015L548.7290152587891,521.2567310791015L548.7290152587891,319.90543107910156Q467.07801525878904,309.20481507910154,430.26501525878905,309.20480707910156Q398.4850152587891,309.20481507910154,369.88501525878905,317.06580107910156Q334.3650152587891,326.82893107910155,301.4320152587891,349.13843107910157Q278.28001525878904,364.82263107910154,265.59201525878905,372.35693107910157Q245.43601525878904,384.3263310791016,226.54501525878908,391.86083107910156Q180.38601525878906,410.27073107910155,119.50001525878906,410.27073107910155Q29.497515258789065,410.27073107910155,-33.39538474121093,375.95483107910155L-51.62358574121094,497.4757310791016Z" fill-rule="evenodd" fill="#205A7B" fill-opacity="1"/></g></g><g filter="url(#master_svg2_19_021)"><path d="M37.012046813964844,213.02873107910156Q37.012046813964844,263.76573107910156,56.01494681396484,299.6157310791016Q75.01784681396484,335.4667310791016,107.98414681396484,354.33573107910155Q140.95004681396483,373.2047310791016,182.73604681396483,373.2047310791016Q222.84104681396485,373.2047310791016,251.92304681396485,357.4807310791016Q263.05504681396485,350.97273107910155,272.54004681396486,341.44573107910156L228.61604681396486,301.08373107910154Q210.24304681396484,314.9207310791016,183.99604681396485,314.9207310791016Q148.30004681396485,314.9207310791016,126.14714681396484,288.9237310791016Q103.99454681396485,262.92673107910156,103.99454681396485,213.02873107910156Q103.99454681396485,164.17973107910154,126.04214681396485,137.44853107910154Q146.45504681396483,110.71763107910157,184.20604681396483,110.71763107910157C216.73204681396484,110.71763107910157,227.11204681396484,119.58913107910156,241.04704681396484,131.49883107910156C243.28504681396484,133.41173107910157,245.61504681396485,135.40303107910157,248.14304681396484,137.44853107910154L289.92804681396484,96.89703107910157Q267.79804681396485,74.66543107910157,248.14304681396484,65.85163107910157Q219.06204681396486,52.43373107910156,182.73604681396483,52.43373107910156Q141.58004681396483,52.43373107910156,108.50904681396484,71.30263107910156Q75.43774681396485,90.17153107910156,56.22494681396485,126.02243107910157Q37.012046813964844,161.87373107910156,37.012046813964844,213.02873107910156Z" fill="#FE8728" fill-opacity="1"/></g><g filter="url(#master_svg3_19_022)"><path d="M171.73058127441408,262.7050204589844Q161.59198127441405,262.7050204589844,154.18298127441406,258.53832045898434Q146.77406127441407,254.37162045898438,142.78462127441406,246.92892045898438Q138.79518127441406,239.48632045898438,138.79518127441406,229.60112045898438Q138.79518127441406,219.65842045898438,142.78462127441406,212.18712045898437Q146.77406127441407,204.71572045898438,154.18298127441406,200.54892045898438Q161.59198127441405,196.38222045898436,171.73058127441408,196.38222045898436Q181.92908127441405,196.38222045898436,189.33808127441407,200.54892045898438Q196.74708127441406,204.71572045898438,200.73648127441407,212.18712045898437Q204.72588127441406,219.65842045898438,204.72588127441406,229.60112045898438Q204.72588127441406,239.48632045898438,200.73648127441407,246.92892045898438Q196.74708127441406,254.37162045898438,189.33808127441407,258.53832045898434Q181.92908127441405,262.7050204589844,171.73058127441408,262.7050204589844ZM157.69248127441406,229.48622045898438Q157.69248127441406,237.87712045898436,161.23198127441407,243.33692045898437Q164.77148127441407,248.79682045898437,171.79058127441405,248.79682045898437Q178.74958127441406,248.79682045898437,182.28908127441406,243.33692045898437Q185.82858127441406,237.87712045898436,185.82858127441406,229.48622045898438Q185.82858127441406,221.0952204589844,182.28908127441406,215.69292045898436Q178.74958127441406,210.29052045898436,171.79058127441405,210.29052045898436Q164.77148127441407,210.29052045898436,161.23198127441407,215.69292045898436Q157.69248127441406,221.0952204589844,157.69248127441406,229.48622045898438ZM246.96018127441408,286.8432204589844Q233.40188127441405,286.8432204589844,225.69298127441408,281.69922045898437Q217.98408127441405,276.5562204589844,216.36428127441405,268.9120204589844L233.52188127441406,266.7281204589844Q234.66168127441406,269.65922045898435,237.93128127441406,271.84312045898434Q241.20118127441407,274.02712045898437,247.38018127441404,274.02712045898437Q253.43918127441407,274.02712045898437,257.39818127441407,271.2397204589844Q261.35818127441405,268.4523204589844,261.35818127441405,261.84302045898437L261.35818127441405,250.0612204589844L260.5181812744141,250.0612204589844Q258.71818127441406,254.08422045898436,254.06918127441406,257.30272045898437Q249.41918127441406,260.52112045898434,241.38118127441408,260.52112045898434Q233.88178127441407,260.52112045898434,227.70268127441406,257.1590204589844Q221.52358127441406,253.79692045898437,217.86408127441405,246.8427204589844Q214.20458127441407,239.88862045898438,214.20458127441407,229.25632045898436Q214.20458127441407,218.27912045898438,217.95408127441408,210.98012045898437Q221.70348127441406,203.68122045898437,227.88268127441407,200.03172045898438Q234.06178127441405,196.38222045898436,241.44118127441408,196.38222045898436Q247.02018127441406,196.38222045898436,250.85918127441406,198.19262045898438Q254.69918127441406,200.00302045898437,257.0681812744141,202.70422045898437Q259.4381812744141,205.40532045898436,260.6981812744141,208.04912045898436L261.41818127441405,208.04912045898436L261.41818127441405,197.18682045898439L279.6551812744141,197.18682045898439L279.6551812744141,262.1303204589844Q279.6551812744141,270.29142045898436,275.45618127441406,275.80822045898435Q271.2561812744141,281.3262204589844,263.90718127441403,284.08422045898436Q256.5581812744141,286.8432204589844,246.96018127441408,286.8432204589844ZM233.22188127441405,229.14132045898438Q233.22188127441405,237.41732045898436,236.85138127441405,242.27372045898437Q240.48118127441407,247.13012045898438,247.32018127441407,247.13012045898438Q254.03918127441406,247.13012045898438,257.72818127441406,242.3599204589844Q261.41818127441405,237.58972045898437,261.41818127441405,229.14132045898438Q261.41818127441405,220.69292045898436,257.758181274414,215.60662045898437Q254.09918127441406,210.52042045898438,247.32018127441407,210.52042045898438Q240.42118127441407,210.52042045898438,236.82138127441408,215.72162045898438Q233.22188127441405,220.92282045898438,233.22188127441405,229.14132045898438ZM313.1311812744141,224.3137204589844L313.1311812744141,261.4407204589844L294.53318127441406,261.4407204589844L294.53318127441406,197.18682045898439L312.83118127441406,197.18682045898439L312.83118127441406,208.62382045898437L313.49018127441406,208.62382045898437Q315.7701812744141,202.99152045898438,320.74918127441407,199.6869204589844Q325.72918127441403,196.38222045898436,333.16818127441405,196.38222045898436Q343.66618127441404,196.38222045898436,349.99518127441405,202.8478204589844Q356.32418127441406,209.31342045898438,356.32418127441406,220.57802045898438L356.32418127441406,261.4407204589844L337.7271812744141,261.4407204589844L337.7271812744141,223.73902045898438Q337.7271812744141,217.81932045898438,334.5771812744141,214.48592045898437Q331.4281812744141,211.15262045898436,325.84918127441404,211.15262045898436Q320.210181274414,211.15262045898436,316.67018127441406,214.6296204589844Q313.1311812744141,218.10672045898437,313.1311812744141,224.3137204589844ZM371.2021812744141,261.4407204589844L371.2021812744141,197.18682045898439L389.80018127441406,197.18682045898439L389.80018127441406,261.4407204589844L371.2021812744141,261.4407204589844ZM401.61818127441404,190.75002045898438L401.61818127441404,175.80722045898438L474.98818127441405,175.80722045898438L474.98818127441405,190.75002045898438L447.75218127441406,190.75002045898438L447.75218127441406,261.4407204589844L428.9141812744141,261.4407204589844L428.9141812744141,190.75002045898438L401.61818127441404,190.75002045898438Z" fill="#FFFFFF" fill-opacity="1"/></g><g filter="url(#master_svg4_19_023)"><rect x="354.6988067626953" y="117.20481872558594" width="49.349395751953125" height="49.349395751953125" rx="24.674697875976562" fill="#FFFFFF" fill-opacity="1"/></g></g></g></svg>